<?xml version="1.0" encoding="utf-8"?>
<!-- Generator: Adobe Illustrator 25.2.1, SVG Export Plug-In . SVG Version: 6.00 Build 0)  -->
<svg version="1.1" xmlns="http://www.w3.org/2000/svg"
     xmlns:xlink="http://www.w3.org/1999/xlink" x="0px" y="0px"
     viewBox="0 0 488.54 279.87" style="enable-background:new 0 0 488.54 279.87;"
     xml:space="preserve">
<style type="text/css">
	.st0{fill:#171D33;}
	.st1{fill:#676C85;}
	.st2{fill:#A4A5B0;}
</style>
    <g id="Слой_1">
</g>
    <g id="Слой_2">
	<path class="st0" d="M440.84,38.61c-58.66,0-117.12,0-175.69,0c0-3.95,0-7.75,0-11.55c0.94-0.27,185.5-0.36,187.34-0.08
		c0.03,0.31,0.09,0.65,0.11,0.98c0.02,0.48,0.01,0.97,0.01,1.45c0,68.63,0.01,137.27-0.04,205.9c0,1.57,0.48,2.67,1.63,3.64
		c1.87,1.58,3.98,2.56,6.4,2.87c0.31,0.04,0.61,0.08,0.91,0.13c0.13,0.02,0.25,0.07,0.46,0.13c0,0.67,0,1.35,0,2.14
		c-10.15,0-20.29,0-30.48,0c-0.04-0.35-0.09-0.64-0.1-0.94c0-0.39,0.04-0.78,0.06-1.2c1-0.18,1.96-0.31,2.88-0.54
		c2.28-0.56,4.2-1.74,5.8-3.47c0.47-0.51,0.78-1.05,0.7-1.77c-0.04-0.35-0.01-0.7-0.01-1.06c0-64.81,0-129.61,0-194.42
		C440.84,40.16,440.84,39.51,440.84,38.61z"/>
        <path class="st0" d="M100.31,59.94c-0.26,0.75-0.61,1.65-0.92,2.34c-2.39,5.25-4.8,10.48-7.22,15.71c-0.05,0.1-0.16,0.16-0.37,0.36
		c-0.29-0.65-0.55-1.2-0.78-1.77c-1.94-4.81-3.89-9.61-5.8-14.44c-0.34-0.86-0.57-1.79-0.72-2.72c-0.19-1.16,0.29-1.87,1.39-2.27
		c0.33-0.12,0.68-0.17,1.02-0.23c1-0.17,2-0.33,3-0.47c0.49-0.07,0.86-0.28,0.87-0.82c0.01-1.05,0.04-2.02,0.03-3.15
		c-5.38,0.22-10.61,0.26-15.79,0.31c-5.21,0.05-10.67-0.14-16.01-0.26c-0.06,1.27,0.08,3.2,0.46,3.65c0.38,0.45,2.69,0.96,4.16,1.42
		c1.68,0.53,2.95,1.56,3.67,3.23c1.78,4.1,3.64,8.16,5.36,12.29c3.08,7.38,6.09,14.8,9.13,22.2c0.25,0.62,0.49,1.18,0.13,1.91
		c-2.96,6.01-5.88,12.04-8.81,18.07c-0.12,0.25-0.33,0.46-0.58,0.79c-0.27-0.58-0.49-1.01-0.68-1.46
		c-1.75-4.16-3.51-8.32-5.24-12.49c-4.85-11.69-9.69-23.37-14.52-35.07c-0.83-2.02-1.58-4.09-2.35-6.14
		c-0.55-1.44-0.41-1.94,0.85-2.84c0.5-0.36,1.05-0.66,1.58-0.97c2.3-1.34,1.82-0.71,2.29-3.33c0.01-0.04,0.03-0.09,0.03-0.13
		c0.11-0.86-0.12-1.17-0.96-1.18c-0.79-0.01-1.58,0.06-2.37,0.1c-5.32,0.24-13.62,0.31-15.96,0.22s-4.69-0.23-6.34-0.28
		c-1.65-0.05-1.7,0.01-1.7,0.44s0,3.39,0.29,3.66c0.29,0.27,0.84,0.42,1.25,0.56c1.42,0.47,2.43,1.4,3.1,2.75
		c0.68,1.36,1.43,2.68,2.04,4.07c1.96,4.51,3.87,9.04,5.78,13.57c5.56,13.18,11.08,26.38,16.68,39.54
		c2.38,5.6,4.85,11.15,6.83,16.91c0.06,0.16,0.16,0.3,0.24,0.46c2.06,0,4.07,0,6.14,0c4.69-10.65,10.23-20.83,15.63-31.43
		c2.67,5.31,4.7,10.57,6.91,15.73c2.23,5.21,4.36,10.46,6.52,15.67c2,0,4.01,0,6.04,0c0.18-0.47,0.35-0.88,0.51-1.3
		c1.61-4.22,3.25-8.43,4.83-12.66c7.31-19.57,15.85-38.63,22.86-58.32c0.77-2.17,2.14-3.66,4.14-4.62c0.36-0.17,0.71-0.35,1.08-0.51
		c0.58-0.25,1.36-0.87,1.45-1.46c0-0.93,0.29-2.76,0-2.95c-0.29-0.2-1.67-0.03-2.18,0c-4.03,0.14-8.82,0.15-13.55-0.05
		c-2.31-0.15-2.78-0.46-2.47,3.06c0.06,0.72,0.34,1.18,1.01,1.39c1.26,0.4,2.52,0.8,3.77,1.21c0.96,0.32,1.25,0.76,1.14,1.77
		c-0.03,0.31-0.11,0.62-0.21,0.92c-0.65,1.95-1.25,3.92-1.98,5.85c-5.77,15.22-11.56,30.44-17.34,45.65
		c-0.17,0.45-0.37,0.89-0.62,1.5c-0.24-0.45-0.42-0.74-0.55-1.06c-3.79-9.03-7.57-18.06-11.38-27.08c-0.25-0.59-0.24-1.07,0.05-1.64
		c3.37-6.81,6.71-13.63,10.07-20.44c0.39-0.8,0.86-1.57,1.33-2.32c0.83-1.33,1.95-2.3,3.43-2.8c1.38-0.46,2.75-0.94,4.12-1.41
		c0.74-0.25,1.49-0.5,2.27-0.76c0.07-1.17,0.03-2.86,0.1-4.01c-4.09,0.16-6.47,0.34-10.44,0.34c-3.55,0-8.7-0.17-12.26-0.25
		c0.03,1.56-0.13,3.38,0.38,3.78c0.51,0.41,1.74,0.35,3.8,0.79S100.81,58.48,100.31,59.94z"/>
        <path class="st0" d="M217.67,164.47c0-1.63,0-3.15,0-4.79c1.87,0.11,3.66,0.17,5.44,0.34c6.62,0.63,13.26,0.79,19.9,0.55
		c5.1-0.19,10.19-0.54,15.29-0.7c5.02-0.16,10.01,0.04,14.94,1.26c7.24,1.78,11.76,6.57,14.77,13.34
		c5.25,11.79-0.75,30.08-17.6,32.95c-5.61,0.96-11.02,0.29-16.2-2.27c-1.29-0.64-1.68-1.44-1.68-2.91c0-0.98,0-1.98,0-3.14
		c0.55,0.03,0.95,0.05,1.45,0.09c2.24,0.18,4.49,0.3,6.7-0.24c5.49-1.34,8.79-4.93,9.85-10.59c0.77-4.09,0.65-8.21-0.49-12.23
		c-0.38-1.33-0.99-2.61-1.64-3.83c-1.48-2.79-3.73-4.62-6.71-5.53c-3.57-1.09-7.17-1.28-10.83-0.65c-0.43,0.07-0.86,0.19-1.27,0.34
		c-1.54,0.55-1.72,1.47-1.71,3.14c0.01,1.72-0.03,3.49,0,5.21c0,5.8-0.03,15.67-0.03,23.44c0,6.9,0,13.76,0.03,20.63
		c0,2.23-0.01,10.72,0,14.52c0.01,2.03,0.35,1.94,0.76,2.27c0.95,0.59,10.72,3.16,11.3,3.42c0.73,0.32,0.96,0.5,0.96,0.97
		c0,0.45-0.02,2.2-0.02,3.8c-0.83,0-6.95-0.55-9.32-0.74c-6.85-0.55-13.71-0.71-20.57-0.21c-3.11,0.23-6.2,0.52-9.31,0.83
		c-0.43,0.04-1.14,0.08-1.7,0.11c0-1.22,0-2.5,0-3.5c0.01-0.68,0.15-1.01,0.94-1.26c1.43-0.44,2.86-0.89,4.26-1.44
		c1.56-0.61,2.98-1.12,4.52-1.76c0.78-0.33,1.03-0.58,1.03-2.52c0-2.8,0-4.8,0-6.61c0-8.35,0-10.47,0-19.49
		c0-6.18-0.06-26.04-0.06-27.51c0-1.99,0.01-6.12,0.01-8.25c0-4.23-2.57-4.72-5.29-5.34c-1.89-0.43-3.8-0.74-5.69-1.13
		C219.02,164.87,218.35,164.65,217.67,164.47z"/>
        <path class="st0" d="M75.55,182.5c-2.09-0.14-3.96-0.26-5.82-0.38c-0.47-1.28-0.85-2.45-1.34-3.57c-0.77-1.77-1.5-3.58-2.46-5.25
		c-3.12-5.45-9.08-8.28-15.3-7.45c-1.76,0.24-3.47,0.61-5.03,1.46c-3.43,1.86-5.55,4.66-5.98,8.61c-0.22,1.98,0.22,3.85,1.17,5.59
		c1.32,2.42,3.21,4.27,5.6,5.63c3.03,1.73,6.27,2.97,9.6,3.97c4.05,1.22,7.98,2.71,11.81,4.5c3.88,1.82,7.24,4.26,9.93,7.66
		c2.63,3.33,4.47,9.42,4.47,13.04c0,3.62,0.05,7.57-1.39,11.19s-3.67,6.25-5.92,8.53c-2.26,2.27-8.21,5.65-14.16,6.86
		c-4.55,0.93-9.17,1.01-13.79,0.57c-5.38-0.51-10.46-2.26-15.58-3.82c-0.17-0.05-0.33-0.11-0.5-0.17c-1.79-0.71-2.02-1.07-2.07-3.05
		c-0.13-4.53-0.29-9.05-0.42-13.58c-0.03-0.87,0-1.74,0-2.71c1.98,0,3.81,0,5.75,0c0.18,0.37,0.4,0.8,0.59,1.23
		c0.89,1.96,1.7,3.96,2.67,5.88c3.76,7.38,9.92,10.77,18.1,10.66c2.72-0.03,5.32-0.7,7.8-1.76c3.98-1.71,6.71-4.61,7.83-8.86
		c0.69-2.62,0.35-5.15-1.01-7.52c-1.37-2.39-3.22-4.32-5.74-5.46c-3.36-1.51-6.78-2.89-10.2-4.29c-4.15-1.69-8.36-3.24-12.45-5.05
		c-1.99-0.88-3.92-2.05-5.62-3.4c-4.73-3.75-7.38-8.84-8.33-14.7c-1.98-12.22,5.61-23.2,17.88-26.12
		c5.42-1.29,10.87-1.38,16.37-0.46c3.65,0.61,7.22,1.52,10.73,2.66c0.85,0.27,1.35,0.65,1.46,1.59c0.38,3.05,0.89,6.09,1.21,9.14
		c0.22,2.09,0.26,4.21,0.32,6.32C75.76,180.75,75.63,181.49,75.55,182.5z"/>
        <path class="st0" d="M381.57,236.17c-0.77,1.2-1.47,2.26-2.13,3.34c-0.77,1.23-1.52,2.47-2.25,3.72c-0.32,0.55-0.81,0.99-1.58,0.99
		c-0.76,0-0.7,0-1.45,0c0-0.99-0.02-2.79,0-3.61c0-2.09,0-3.17,0-5.28c0-2.64-0.02-4.97-0.02-7.52c0.02-15.35,0.02-30.7,0-46.04
		c0-2.24-0.15-4.48-0.24-6.72c-0.02-0.39-0.11-0.78-0.15-1.17c-0.08-0.83-0.52-1.34-1.32-1.62c-1.41-0.5-2.79-1.07-4.18-1.61
		c-0.45-0.17-0.89-0.36-1.38-0.56c0-0.93,0-1.84,0-2.87c1.04-0.4,2.09-0.82,3.16-1.2c3.82-1.37,7.37-3.31,10.93-5.22
		c1.08-0.58,2.09-0.83,3.38-0.83c1.09,0,2.25-0.02,3.08-0.02c0,0.88,0,1.78,0,2.59c0.06,6.51-0.06,13.02-0.03,19.53
		c0.03,4.7,0,9.25,0.03,13.95c0,0.38,0,1.02,0,1.71c0.44-0.37,0.83-0.78,1.1-1.03c3.92-3.76,8.53-6.27,13.9-6.99
		c10.72-1.44,19.8,2.25,25.08,12.43c3.15,6.07,3.57,12.42,2.03,18.97c-2.35,10.03-8.35,16.96-17.95,20.7
		c-1.53,0.6-3.22,0.93-4.86,1.1c-3.23,0.33-6.49,0.56-9.73,0.01c-4.18-0.71-7.97-2.41-11.61-4.51
		C384.16,237.69,382.95,236.97,381.57,236.17z M387.42,228.84c0,3.09,1.62,4.63,3.29,6.21c1.46,1.38,3.3,2.14,5.19,2.82
		c5.09,1.83,13.41-0.45,16.62-7.16c1.28-2.68,2.13-5.47,2.46-8.43c0.38-3.34,0.57-6.66-0.15-9.97c-0.73-3.38-1.84-6.62-3.99-9.38
		c-3.13-4.03-7-5.74-12.4-5.74c-5.18,0-9.09,2.86-11.02,4.79c0,1.94,0,3.86,0,4.57c0,4.21,0,3.97,0,8.01
		C387.42,214.57,387.42,222.71,387.42,228.84z"/>
        <path class="st0" d="M312.47,56.55c0.92-0.14,2.38-0.33,3.51-0.48c3.9-0.54,6.49-1.13,10.83-2.06c1.55-0.33,3.19-0.71,4.91-1.07
		c0.8-0.19,1.54-0.19,2.69-0.19c0,0.79,0,1.97,0,2.82c0,2.26-0.02,9.67,0,14.75c0.02,5.08-0.05,10.16-0.07,15.23
		c-0.01,2.76,0,5.52-0.01,8.28c-0.01,4.46-0.08,8.92-0.04,13.38c0.04,5.87,0.16,11.73,0.25,17.6c0.02,1.3,0.08,1.41,1.37,1.64
		c1.38,0.24,2.79,0.37,4.18,0.55c0.73,0.09,1.47,0.18,2.21,0.28c0.12,0.39,0.24,0.67,0.29,0.97c0.22,1.27-0.25,2.03-1.51,2.25
		c-2.51,0.42-5.04,0.75-7.56,1.16c-3.22,0.52-6.39,1.2-9.27,2.83c-0.87,0.49-1.81,0.68-2.86,0.26c-0.19-2.12,0.14-4.32-0.33-6.63
		c-0.88,0.49-1.65,0.91-2.39,1.34c-2.44,1.42-4.93,2.72-7.69,3.37c-5.05,1.2-10.16,1.31-15.13-0.22
		c-5.75-1.76-10.19-5.45-12.92-10.76c-3.28-6.35-4.09-13.15-2.5-20.17c0.45-1.98,1.23-3.83,2.22-5.6c2.14-3.82,5.83-7.52,8.61-9.47
		c2.78-1.95,4.68-3.03,8.25-3.87c3.58-0.84,6.6-0.77,9.71-0.25c3.11,0.52,4.01,0.99,5.48,1.74c1.47,0.75,3.02,1.72,3.78,2.32
		c0.76,0.6,2.13,1.62,2.31,1.82c0-0.49-0.02-2.39-0.02-2.99c0.03-5.21,0.11-10.42,0.02-15.63c-0.03-1.95,0-2.79,0-4.51
		c-0.05-0.34,0.04-1.18-0.62-2.52c-0.66-1.34-2.21-2.41-4.02-2.57c-0.96-0.08-1.9-0.3-2.85-0.46c-0.64-0.11-0.86-0.49-0.83-1.12
		C312.5,57.94,312.47,57.28,312.47,56.55z M320.78,93.24c-3.04-3.31-5.42-5.61-10.63-6.13c-4.79-0.49-8.89,0.84-11.67,5.03
		c-0.65,0.98-1.28,2.01-1.73,3.09c-2.87,6.93-3.03,14-0.51,21.02c2.58,7.17,9.46,11.3,17.03,10.5c2.45-0.26,5.35-1.87,7.5-2.99
		c0,0,0-2.89,0-6.93S320.78,97.56,320.78,93.24z"/>
        <path class="st0" d="M296.41,191.93c0.57-0.1,1.09-0.29,1.6-0.29c3.17,0,12.05,0,18.08,0.01c0.39,0,0.97-0.05,1.46-0.01
		c0,0.45,0,0.9,0,1.26c0,1.31,0,2.46,0,3.83c0,2.42-0.02,15.52,0,23.34c0.01,3.07,0.13,6.29,0.32,9.36
		c0.24,3.84,3.23,6.85,7.33,7.15c3.46,0.25,6.62-0.45,9.48-2.49c1.88-1.34,3.68-2.71,4.89-4.73c0.51-0.85,0.51-1.71,0.53-2.72
		c0-5.37,0-5.58,0-11.13c0-2.02,0.02-2.68,0-4.7c0-1.85,0-3.45,0-5.37c0-1.26,0-5.06,0-6.09c0-1.28-0.39-1.87-2.05-2.3
		c-1.34-0.29-4.72-1.06-5.91-1.31c-0.92-0.22-0.79-0.74-0.79-1.64c0-1.04,0-1.48,0-2.05c0.64-0.14,2.14-0.4,3.09-0.4
		c6.33-0.02,12.67-0.01,19-0.01c0.08,0,0.37,0,0.44,0c0,0.08-0.01,0.82,0,1.2c0,1.14,0,2.29,0,3.43c-0.01,5.76,0.04,10.57,0,16.33
		c-0.03,5.01,0.07,10.56,0,15.58c-0.01,0.92,0,2.06,0,2.95c-0.02,0.65-0.03,1.55,0.09,2.19c0.28,1.56,0.84,1.96,2.42,1.96
		c1.92,0,3.54-0.01,5.52-0.01c0.19,1.24,0.51,2.46,0.03,3.77c-0.6,0.06-1.21,0.12-1.82,0.17c-4.21,0.32-8.15,1.71-12.14,2.93
		c-1.39,0.42-2.77,0.88-4.11,1.43c-1.2,0.49-2.38,0.41-3.78,0.2c0-3.25,0-6.46,0-9.68c-0.09-0.04-0.19-0.08-0.28-0.12
		c-0.39,0.33-0.77,0.67-1.16,0.99c-2.08,1.69-4.12,3.45-6.27,5.03c-3.34,2.45-7.11,3.81-11.27,3.99c-3.16,0.13-6.23-0.29-9.1-1.71
		c-4.57-2.25-7.29-5.82-7.79-10.96c-0.14-1.4-0.23-2.81-0.22-4.21c0.03-5.23-0.05-11.1,0-16.33c0.04-3.47-0.01-4.34,0-7.82
		c0-1.26,0-2.03,0-2.58c0-2.41-0.12-2.76-2.57-3.3c-1.38-0.26-2.95-0.54-4.3-0.93c-1.02-0.3-1.16-0.6-1.04-1.66
		C296.15,193.68,296.28,192.9,296.41,191.93z"/>
        <path class="st0" d="M164.45,80.52c2.75,0,7.77,0.56,11.41,2.04c7.78,3.15,12.74,8.93,15.23,16.96c1.23,3.95,1.22,7.97,0.77,12.02
		c-0.72,6.47-3.56,11.85-8.25,16.25c-3.38,3.17-7.44,5.03-11.92,5.93c-6.16,1.23-12.26,1.03-18.2-1.16c-5-1.84-9.1-5-12.39-9.2
		c-2.3-2.92-3.57-6.31-4.18-9.96c-0.91-5.39-0.85-10.73,1.15-15.9c3.44-8.88,10-14.09,19.06-16.13
		C159.52,80.83,161.71,80.52,164.45,80.52z M164.37,130.32c5.19,0,8.2-3.09,9.93-5.64c1.73-2.55,1.89-3.9,2.34-6.76
		s0.45-6.38,0.45-10.14c0-2.18-0.18-7.16-0.64-10.47c-0.34-2.39-0.47-3.24-1.15-5.27c-1.51-4.46-5.61-7.18-11.02-7.18
		c-6.34,0-9.88,4.22-10.88,6.76c-1.05,2.68-1.12,3.04-1.57,5.23c-0.6,2.91-0.42,8.38-0.42,11.22c0,2.84,0.08,7.83,0.41,10.28
		s0.81,3.88,2.14,6.15S159.18,130.32,164.37,130.32z"/>
        <path class="st0" d="M139.95,226.3c1.01,0.52,1.93,0.93,2.78,1.46c1.05,0.64,1.06,0.78,0.67,1.93c-0.99,2.9-2.73,5.3-4.94,7.38
		c-3.73,3.52-8.17,5.6-13.2,6.43c-6.59,1.09-12.96,0.38-19.09-2.36c-7.49-3.35-12.06-8.95-14.08-16.98
		c-2.72-10.8,2.63-23.86,12.92-30.1c5.53-3.36,11.54-4.88,17.96-4.91c3.75-0.02,7.47,0.16,11.12,1.17c2.9,0.8,5.25,2.41,7.13,4.74
		c1.84,2.28,2.06,4.8,1.1,7.46c-1.38,3.83-5.36,4.47-8.31,3.45c-1.72-0.6-3.1-1.69-4.05-3.23c-0.64-1.04-1.11-2.19-1.67-3.28
		c-0.54-1.05-0.99-2.16-1.65-3.14c-1.12-1.67-2.78-2.51-4.78-2.66c-3.21-0.24-6.08,0.68-8.66,2.57c-3.6,2.64-5.86,6.17-6.74,10.52
		c-1.09,5.42-0.81,10.79,1.21,15.96c2.12,5.41,5.82,9.49,11.33,11.47c5.48,1.97,10.83,1.47,15.62-2.17
		c0.76-0.58,1.42-1.31,2.07-2.02C137.77,228.81,138.79,227.61,139.95,226.3z"/>
        <path class="st0" d="M274.8,134.47c-0.94,0-2.99-0.06-4.04-0.1c-1.06-0.04-7.9-0.32-11.85-0.32c-3.94,0-6.55,0.1-8.57,0.19
		c-2.02,0.09-4.92,0.19-7.33,0.23c0-0.94,0-1.56,0-2.41c0-0.27-0.03-0.72,0.13-0.9c0.32-0.36,0.55-0.42,1.37-0.53
		c0.82-0.11,4.06-0.36,5.4-0.6c1.08-0.19,2.16-0.92,2.41-1.97c0.21-0.91,0.21-1.64,0.21-2.57c0-1.66,0.01-2.83,0-4.08
		c-0.07-16.49,0-35.53,0-49c-0.01-2.05-0.12-4.58-0.28-6.63c-0.08-1.04-0.99-1.74-2-2c-0.97-0.25-1.96-0.47-2.95-0.62
		c-0.95-0.14-1.92-0.18-2.91-0.26c-0.38-1.14-0.49-2.21-0.23-3.26c2.18-0.5,4.3-0.9,6.37-1.49c3.86-1.1,7.57-2.59,10.98-4.8
		c1.12-0.73,2.56-0.6,3.88-0.58c0,0.46,0,2.71,0,3.73c0,7.91-0.05,19.72,0,30.27c0,9.24-0.04,22.74,0,35.84
		c0,0.84,0.02,3.91,0.17,4.74c0.21,1.16,1.19,2.28,2.39,2.47c1.13,0.18,2.26,0.33,3.39,0.48c0.87,0.12,1.74,0.22,2.62,0.31
		c0.53,0.05,0.82,0.32,0.83,0.84C274.81,132.41,274.8,133.38,274.8,134.47z"/>
        <path class="st0" d="M231.86,134.48c-2.25-0.07-3.56-0.11-5.8-0.18c-5.45-0.2-12.72-0.22-16.97-0.11s-5.7,0.14-8.6,0.25
		c-0.43,0.02-1,0.03-1.62,0.03c0-0.81-0.01-1.42,0.05-2.21c0.05-0.33,0.05-0.61,0.36-0.79c0.49-0.28,1.38-0.5,1.92-0.7
		c1.6-0.61,3.14-1.03,4.73-1.64c0.85-0.32,1.45-1.05,1.45-2.62c0-1.49,0-2.89,0-4.49c0-5.72,0-16.21,0-19.57
		c0-1.96,0.02-3.11-0.11-4.61c-0.11-1.18-1.15-2.03-2.26-2.4c-0.96-0.32-1.92-0.63-2.89-0.91c-1.52-0.44-1.84-0.82-1.94-2.41
		c-0.02-0.39,0-0.78,0-1.23c0.33-0.08,0.62-0.15,0.91-0.21c5.28-1.08,9.51-3.86,12.71-8.15c1.02-1.36,1.89-2.04,3.66-2.02
		c0.62,0.01,0.81,0,1.38,0c0.45,0,0.87,0,1.45,0c0,0.79,0,1.72,0,2.63c0,2.61,0,3.38,0,5.99c0,0.43,0,2.43,0,3.18
		c0.39-0.53,0.57-0.81,0.71-1.04c0.43-0.67,0.43-0.67,0.81-1.36c1.19-2.17,2.92-3.87,4.82-5.39c4.42-3.55,11.62-0.97,12.66,4.54
		c0.61,3.25-1.5,7.6-4.94,8.34c-1.52,0.33-2.99,0.17-4.38-0.48c-0.87-0.41-1.67-0.97-2.49-1.49c-0.45-0.28-0.85-0.63-1.31-0.9
		c-1.42-0.83-2.43-0.66-3.48,0.63c-1.19,1.47-1.94,3.18-2.25,5.03c-0.21,1.25-0.15,2.36-0.18,3.64c0,0.57,0.01,3.72,0.01,6.2
		c0,6.24,0,9.33,0,12.39c0-1.3,0,2.04,0,3.7c0,2.48,1.85,3.22,3.9,3.64c1.59,0.33,3.21,0.49,4.82,0.74
		c0.39,0.06,1.79,0.24,2.17,0.33c0.81,0.21,0.67,0.8,0.67,2.43C231.86,133.66,231.86,133.9,231.86,134.48z"/>
        <path class="st0" d="M172.7,238.87c0.98,0.44,4.59,1.1,7.44,1.67c0.36,0.07,0.62,0.39,0.62,0.77l0,2.91
		c-0.47-0.02-0.95-0.04-1.28-0.05c-0.33-0.01-3.31-0.09-5.07-0.11c-3-0.04-5.86-0.12-9.79-0.12c-3.93,0-13.76,0.21-14.35,0.23
		c-0.59,0.02-1.29,0.05-1.79,0.05v-2.88c0-0.37,0.27-0.69,0.63-0.74c1.01-0.15,2.06-0.38,3.18-0.66c1.12-0.29,1.65-0.44,2.51-0.61
		c0.64-0.13,1.27-0.36,1.86-0.63c0.67-0.31,1.63-0.81,1.63-1.81c0-0.39,0-1.21,0-1.65c0-2.46-0.12-11.39-0.11-16.81
		c0.01-3.82,0.06-7.64,0.07-11.47c0-1.2-0.1-2.4-0.13-3.6c-0.03-1.25-0.66-2.04-1.75-2.58c-1.49-0.74-3.09-1-4.7-1.21
		c-0.78-0.1-1.57-0.18-2.46-0.28v-3.48c1.06-0.14,2.1-0.27,3.14-0.41c5.53-0.75,10.39-2.94,14.36-6.94
		c0.61-0.61,1.22-0.85,2.13-0.85c0.46,0,1.19,0,2.14,0c0.31,0,0.53,0,0.67,0c0,0.31,0,1.15,0,1.53c0,13.2,0.05,24.09,0.05,38.48
		c-0.06,3.42-0.05,6.27-0.05,9.77C171.66,237.63,171.65,238.4,172.7,238.87z"/>
        <path class="st0" d="M157.24,169.15c-0.05-5.26,4.13-8.71,9.3-7.82c0.94,0.16,1.9,0.44,2.75,0.87c5.37,2.72,5.81,10.11,0.85,13.69
		c-5.01,3.61-11.91,0.64-12.77-5.5C157.3,169.91,157.27,169.43,157.24,169.15z"/>
        <path class="st0" d="M423.55,66.88h-62.47c-0.33,0-0.59-0.27-0.59-0.59V55.87c0-0.33,0.27-0.59,0.59-0.59h62.47
		c0.33,0,0.59,0.27,0.59,0.59v10.41C424.15,66.61,423.88,66.88,423.55,66.88z"/>
        <path class="st1" d="M423.55,99.58h-62.47c-0.33,0-0.59-0.27-0.59-0.59V88.58c0-0.33,0.27-0.59,0.59-0.59h62.47
		c0.33,0,0.59,0.27,0.59,0.59v10.41C424.15,99.32,423.88,99.58,423.55,99.58z"/>
        <path class="st2" d="M423.55,134.48h-62.47c-0.33,0-0.59-0.27-0.59-0.59v-10.41c0-0.33,0.27-0.59,0.59-0.59h62.47
		c0.33,0,0.59,0.27,0.59,0.59v10.41C424.15,134.21,423.88,134.48,423.55,134.48z"/>
</g>
</svg>
