<svg width="79" height="114" viewBox="0 0 79 114" fill="none" xmlns="http://www.w3.org/2000/svg">
<g opacity="0.35" filter="url(#filter0_d)">
<path fill-rule="evenodd" clip-rule="evenodd" d="M50.1009 18.8113C51.4856 17.1174 52.4228 15.0416 52.2662 12.7157C51.815 6.01384 42.8628 7.48815 41.1214 10.8707C39.38 14.2532 39.587 22.8332 41.8375 23.4377C42.7351 23.6788 44.6471 23.0882 46.5931 21.8659L45.3716 30.8711H52.5838L50.1009 18.8113Z" fill="#B28B67"/>
<path fill-rule="evenodd" clip-rule="evenodd" d="M55.4106 10.485C55.6435 10.2445 55.7706 9.90112 55.8805 9.57508C55.9947 9.23639 56.1056 8.89421 56.1814 8.54168C56.3328 7.83732 56.3342 7.02728 55.852 6.48034C55.4653 6.04175 54.8851 5.84503 54.3496 5.80227C53.9928 5.77376 53.6264 5.82583 53.2844 5.943C52.945 6.05923 52.6525 6.29088 52.3236 6.43466C52.311 5.6756 52.1863 4.88137 51.8167 4.23325C51.4611 3.60965 50.8942 3.25971 50.2486 3.16713C49.5859 3.07212 48.9315 3.23372 48.3382 3.56805C48.1897 3.65178 48.0425 3.7395 47.9017 3.83878C47.7838 3.92192 47.6612 4.02204 47.5229 4.05585C47.3686 4.09358 47.2922 4.00075 47.1919 3.88349C47.0744 3.74601 46.942 3.62492 46.8019 3.51757C46.1823 3.04298 45.3694 2.84785 44.6516 3.13232C44.3209 3.26339 43.9993 3.48597 43.7749 3.79269C43.5749 4.0661 43.4322 4.4998 43.1562 4.69029C43.0391 4.77115 42.9563 4.66402 42.8497 4.58484C42.6895 4.46587 42.5367 4.33458 42.3746 4.21885C42.1468 4.05625 41.9002 3.93463 41.6362 3.87097C41.2496 3.77776 40.7154 3.79961 40.6048 4.32723C40.5634 4.52541 40.5952 4.73737 40.6086 4.93705C40.627 5.21124 40.6462 5.48533 40.669 5.75912C40.6864 5.96699 40.7083 6.16776 40.7459 6.3719C40.766 6.48071 40.8289 6.68357 40.7841 6.79254C40.7281 6.92875 40.4699 6.85131 40.3595 6.85605C40.1416 6.86543 39.9228 6.90525 39.7213 7.00229C39.5651 7.07751 39.4009 7.18814 39.335 7.37467C39.2945 7.48925 39.3052 7.60694 39.3243 7.72482C39.3473 7.8663 39.321 7.94133 39.3039 8.08408C39.0112 7.93388 37.9969 7.60018 37.8693 8.14681C37.8268 8.32882 37.9235 8.53448 37.9974 8.68798C38.1268 8.95722 38.2966 9.2033 38.4701 9.43797C38.8321 9.92754 39.2643 10.3498 39.7292 10.7109C39.1845 10.9633 39.0423 11.7077 39.5139 12.1512C39.7222 12.3471 40.0022 12.3906 40.2648 12.3781C40.361 12.3735 40.4996 12.335 40.5752 12.3525C40.6159 12.3619 40.6595 12.3978 40.7159 12.4018C41.0866 12.4283 41.5051 12.3352 41.8675 12.2495C42.5133 12.0967 43.1246 11.7779 43.6238 11.2924C43.7519 11.1678 43.8577 11.0961 44.0301 11.098C44.1811 11.0995 44.3293 11.1427 44.4802 11.1467C44.8795 11.1573 45.2395 10.9539 45.6103 10.8185C45.633 11.3405 45.7756 11.9154 45.9805 12.385C46.1476 12.7679 46.4966 12.8236 46.8394 12.8572C47.9358 12.9647 49.0361 12.8447 50.1339 12.8463C49.0712 13.0966 47.9731 13.1998 46.9198 13.4943C46.4437 13.6275 46.8073 13.9619 47.0109 14.1937C47.3461 14.5754 47.5953 15.0483 47.7682 15.5466C48.288 14.8404 49.2069 14.3751 50.021 14.5921C50.9205 14.8317 51.5538 16.0994 50.9786 17.0107C50.6447 17.5397 50.0417 17.7439 49.5399 17.9712C49.9313 18.3953 50.026 19.0217 50.2616 19.5493C50.3778 19.8095 50.5409 20.1037 50.8008 20.1944C50.8969 20.2279 51.0097 20.2308 51.0855 20.3125C51.1795 20.4136 51.2019 20.5266 51.3218 20.6135C51.8006 20.9604 52.5485 20.9337 52.9729 20.481C53.3567 20.0716 53.2568 19.4238 52.9363 19.0087C53.4465 18.7871 54.376 18.5021 54.1733 17.6737C55.2788 17.5972 57.963 15.7288 56.4792 14.3634C57.2935 13.8838 58.0417 12.7117 57.5186 11.6785C57.1158 10.8829 56.1791 10.5272 55.4106 10.485Z" fill="#191847"/>
<path fill-rule="evenodd" clip-rule="evenodd" d="M65.6191 70.0161H42.4035L39.3615 108.848H73.9199L65.6191 70.0161Z" fill="#C5CFD6"/>
<path fill-rule="evenodd" clip-rule="evenodd" d="M65.6191 70.0161H58.479L54.2055 108.848H73.9199L65.6191 70.0161Z" fill="black" fill-opacity="0.1"/>
<path fill-rule="evenodd" clip-rule="evenodd" d="M15.9359 63.3632C13.4606 61.8143 9.30779 63.8043 9.31064 66.0195C9.31917 72.6474 15.1235 103.885 15.4265 105.859C15.7296 107.834 18.976 108.356 19.165 105.866C19.4659 101.904 20.0247 88.1896 19.4655 81.8417C19.2347 79.2214 18.9862 76.7259 18.7414 74.4996C21.7872 80.2314 26.4975 88.4379 32.8726 99.1191L36.3334 97.4714C33.6157 88.1404 31.3872 81.553 29.648 77.7092C26.67 71.1276 23.8777 65.4913 22.7025 63.5059C20.8539 60.383 17.6361 61.4726 15.9359 63.3632Z" fill="#B28B67"/>
<path fill-rule="evenodd" clip-rule="evenodd" d="M36.0861 92.2897L24.2077 62.9661C21.3621 58.196 13.3838 63.9368 14.3542 66.7035C16.5573 72.9847 27.762 93.3196 28.4184 95.191L36.0861 92.2897Z" fill="#1F28CF"/>
<path fill-rule="evenodd" clip-rule="evenodd" d="M36.7814 95.6039C37.5147 96.227 37.9908 96.737 38.2098 97.134C38.4762 97.6168 38.7864 98.3688 39.1405 99.3899C38.5942 99.72 33.6843 102.687 24.4109 108.29C23.3124 107.224 23.1469 106.39 23.9146 105.788C24.6822 105.186 25.3157 104.679 25.8152 104.266L30.9352 97.0004C31.0337 96.8606 31.2216 96.828 31.3548 96.9275C31.3571 96.9292 31.3594 96.931 31.3616 96.9327L32.4054 97.7613C33.3703 97.6652 34.0914 97.4729 34.5688 97.1845C34.9566 96.9502 35.4035 96.466 35.9097 95.732L35.9097 95.732C36.1039 95.4503 36.4791 95.381 36.7476 95.5772C36.7592 95.5857 36.7704 95.5946 36.7814 95.6039Z" fill="#E4E4E4"/>
<path fill-rule="evenodd" clip-rule="evenodd" d="M19.9253 104.276C20.2615 105.211 20.4296 105.911 20.4296 106.376C20.4296 106.94 20.3393 107.764 20.1587 108.848C19.5301 108.848 13.8804 108.848 3.20953 108.848C2.76908 107.33 3.02333 106.511 3.97229 106.39C4.92124 106.269 5.70956 106.16 6.33723 106.062L14.2151 102.403C14.3666 102.332 14.5443 102.403 14.6119 102.561C14.613 102.564 14.6142 102.567 14.6152 102.569L15.1216 103.849C16.0001 104.277 16.714 104.49 17.2632 104.49C17.7094 104.49 18.3257 104.302 19.112 103.927L19.112 103.927C19.4137 103.783 19.7705 103.921 19.9088 104.235C19.9148 104.249 19.9203 104.262 19.9253 104.276Z" fill="#E4E4E4"/>
<path fill-rule="evenodd" clip-rule="evenodd" d="M8.47812 68.2731C8.47812 76.5928 12.2696 95.9994 12.272 97.8314L20.4294 97.8379C19.2354 80.5216 18.8121 71.7701 19.1593 71.5836C19.6801 71.3038 40.5107 73.7509 46.7581 73.7509C55.7669 73.7509 59.4936 67.8307 59.796 56.8638H41.9499C38.3163 57.269 19.363 61.2528 12.3241 62.6223C9.31064 63.2086 8.47812 65.9813 8.47812 68.2731Z" fill="#2B44FF"/>
<path fill-rule="evenodd" clip-rule="evenodd" d="M39.1697 37.3537L28.7392 31.4004C27.0046 29.254 25.2956 27.5869 23.6121 26.3993C23.0977 26.1756 22.1982 26.0401 23.0394 27.5961C23.8807 29.1522 24.6985 30.8283 24.2699 31.3077C23.8413 31.7871 22.7725 31.1174 22.2612 31.9139C21.9203 32.4449 23.7462 33.2837 27.7388 34.4303L35.3179 41.6619L39.1697 37.3537ZM22.8335 42.3766L18.2518 39.7537C17.6089 37.2045 16.8405 35.9219 15.9464 35.9059C15.2595 35.5729 16.4557 38.794 15.1536 38.5147C13.8516 38.2354 10.6737 35.7724 10.1261 36.2725C9.31601 37.0123 10.0383 39.284 10.8894 40.4141C12.4801 42.5262 13.7971 43.2485 17.0522 44.1943C18.7542 44.6888 20.5943 45.68 22.5726 47.168L22.8335 42.3766Z" fill="#997659"/>
<path fill-rule="evenodd" clip-rule="evenodd" d="M44.2495 36.0276C40.5961 35.9874 35.7242 35.1833 30.5258 31.7448L28.4843 36.489C32.07 40.1972 37.1119 43.2439 41.5203 43.1149C44.9945 43.0132 46.77 38.6342 44.2495 36.0276Z" fill="#71AC8A"/>
<path fill-rule="evenodd" clip-rule="evenodd" d="M39.3302 43.6362C35.4516 44.6443 28.9474 43.4555 19.8177 40.07C17.5531 44.9522 16.5063 48.4329 16.6771 50.5119C24.5091 54.7753 31.2218 56.6761 36.7521 56.8016C36.5764 60.2213 36.9758 63.4751 38.3175 66.4483C41.076 72.5607 57.2282 66.8999 62.659 68.0141C66.06 56.504 59.4841 51.8264 59.4789 44.4615C59.4731 36.3963 53.2587 23.9819 52.3443 23.9819H44.0062C43.5462 30.1415 41.2305 36.9298 39.3302 43.6362Z" fill="#85C7A1"/>
</g>
<defs>
<filter id="filter0_d" x="0.00012207" y="0" width="78.9198" height="113.848" filterUnits="userSpaceOnUse" color-interpolation-filters="sRGB">
<feFlood flood-opacity="0" result="BackgroundImageFix"/>
<feColorMatrix in="SourceAlpha" type="matrix" values="0 0 0 0 0 0 0 0 0 0 0 0 0 0 0 0 0 0 127 0"/>
<feOffset dx="1" dy="1"/>
<feGaussianBlur stdDeviation="2"/>
<feColorMatrix type="matrix" values="0 0 0 0 0 0 0 0 0 0 0 0 0 0 0 0 0 0 0.25 0"/>
<feBlend mode="normal" in2="BackgroundImageFix" result="effect1_dropShadow"/>
<feBlend mode="normal" in="SourceGraphic" in2="effect1_dropShadow" result="shape"/>
</filter>
</defs>
</svg>
