<svg id="Capa_1" enable-background="new 0 0 512 512" height="512" viewBox="0 0 512 512"
     width="512" xmlns="http://www.w3.org/2000/svg">
    <g>
        <path d="m271.05 147.39c0-8.299-6.751-15.05-15.05-15.05s-15.05 6.751-15.05 15.05v31.05h30.1z"/>
        <path d="m193.868 319.66h124.264v-111.22h-124.264zm47.132-64.761c0-8.284 6.716-15 15-15s15 6.716 15 15v18.302c0 8.284-6.716 15-15 15s-15-6.716-15-15z"/>
        <path d="m431.199 54.522-161.691-52.387c-8.788-2.847-18.228-2.847-27.016 0l-161.691 52.387c-12.889 4.176-21.64 16.353-21.64 30.112v155.892c0 119.611 116.59 221.792 170.311 262.525 15.737 11.932 37.321 11.932 53.057 0 53.721-40.733 170.311-142.914 170.311-262.525v-155.892c-.001-13.759-8.752-25.936-21.641-30.112zm-83.067 280.138c0 8.284-6.716 15-15 15h-154.264c-8.284 0-15-6.716-15-15v-141.22c0-8.284 6.716-15 15-15h32.081v-31.05c0-24.841 20.209-45.05 45.05-45.05s45.05 20.209 45.05 45.05v31.05h32.082c8.284 0 15 6.716 15 15v141.22z"/>
    </g>
</svg>
